%TF.GenerationSoftware,KiCad,Pcbnew,6.0.4-6f826c9f35~116~ubuntu20.04.1*%
%TF.CreationDate,2022-04-28T13:53:23-05:00*%
%TF.ProjectId,opamp_inverting_single,6f70616d-705f-4696-9e76-657274696e67,1.0*%
%TF.SameCoordinates,Original*%
%TF.FileFunction,Legend,Bot*%
%TF.FilePolarity,Positive*%
%FSLAX46Y46*%
G04 Gerber Fmt 4.6, Leading zero omitted, Abs format (unit mm)*
G04 Created by KiCad (PCBNEW 6.0.4-6f826c9f35~116~ubuntu20.04.1) date 2022-04-28 13:53:23*
%MOMM*%
%LPD*%
G01*
G04 APERTURE LIST*
%ADD10C,0.160000*%
%ADD11C,0.150000*%
%ADD12C,0.120000*%
G04 APERTURE END LIST*
D10*
X162836544Y-82275981D02*
X163543651Y-81568875D01*
X162971231Y-81467859D02*
X162499827Y-81939264D01*
X162903888Y-81535203D02*
X162903888Y-81467859D01*
X162870216Y-81366844D01*
X162769201Y-81265829D01*
X162668185Y-81232157D01*
X162567170Y-81265829D01*
X162196781Y-81636218D01*
X162398811Y-80895440D02*
X161759048Y-81198485D01*
X162062094Y-80558722D01*
X161085613Y-80457707D02*
X161119285Y-80558722D01*
X161253972Y-80693409D01*
X161354987Y-80727081D01*
X161456002Y-80693409D01*
X161725376Y-80424035D01*
X161759048Y-80323020D01*
X161725376Y-80222005D01*
X161590689Y-80087318D01*
X161489674Y-80053646D01*
X161388659Y-80087318D01*
X161321315Y-80154661D01*
X161590689Y-80558722D01*
X160715224Y-80154661D02*
X161186628Y-79683257D01*
X161051941Y-79817944D02*
X161085613Y-79716928D01*
X161085613Y-79649585D01*
X161051941Y-79548570D01*
X160984598Y-79481226D01*
X160849911Y-79346539D02*
X160580537Y-79077165D01*
X160984598Y-79009822D02*
X160378506Y-79615913D01*
X160277491Y-79649585D01*
X160176476Y-79615913D01*
X160109132Y-79548570D01*
X159873430Y-79312867D02*
X160344835Y-78841463D01*
X160580537Y-78605761D02*
X160580537Y-78673104D01*
X160513193Y-78673104D01*
X160513193Y-78605761D01*
X160580537Y-78605761D01*
X160513193Y-78673104D01*
X160008117Y-78504745D02*
X159536713Y-78976150D01*
X159940774Y-78572089D02*
X159940774Y-78504745D01*
X159907102Y-78403730D01*
X159806087Y-78302715D01*
X159705071Y-78269043D01*
X159604056Y-78302715D01*
X159233667Y-78673104D01*
X159065308Y-77561936D02*
X158492888Y-78134356D01*
X158459216Y-78235371D01*
X158459216Y-78302715D01*
X158492888Y-78403730D01*
X158593903Y-78504745D01*
X158694919Y-78538417D01*
X158627575Y-77999669D02*
X158661247Y-78100684D01*
X158795934Y-78235371D01*
X158896949Y-78269043D01*
X158964293Y-78269043D01*
X159065308Y-78235371D01*
X159267339Y-78033341D01*
X159301010Y-77932326D01*
X159301010Y-77864982D01*
X159267339Y-77763967D01*
X159132652Y-77629280D01*
X159031636Y-77595608D01*
X157785781Y-77157875D02*
X157651094Y-77090532D01*
X157482736Y-76922173D01*
X157449064Y-76821158D01*
X157449064Y-76753814D01*
X157482736Y-76652799D01*
X157550079Y-76585455D01*
X157651094Y-76551784D01*
X157718438Y-76551784D01*
X157819453Y-76585455D01*
X157987812Y-76686471D01*
X158088827Y-76720142D01*
X158156171Y-76720142D01*
X158257186Y-76686471D01*
X158324529Y-76619127D01*
X158358201Y-76518112D01*
X158358201Y-76450768D01*
X158324529Y-76349753D01*
X158156171Y-76181394D01*
X158021484Y-76114051D01*
X157045003Y-76484440D02*
X157516407Y-76013036D01*
X157752110Y-75777333D02*
X157752110Y-75844677D01*
X157684766Y-75844677D01*
X157684766Y-75777333D01*
X157752110Y-75777333D01*
X157684766Y-75844677D01*
X157179690Y-75676318D02*
X156708285Y-76147723D01*
X157112346Y-75743662D02*
X157112346Y-75676318D01*
X157078675Y-75575303D01*
X156977659Y-75474288D01*
X156876644Y-75440616D01*
X156775629Y-75474288D01*
X156405240Y-75844677D01*
X156236881Y-74733509D02*
X155664461Y-75305929D01*
X155630789Y-75406944D01*
X155630789Y-75474288D01*
X155664461Y-75575303D01*
X155765476Y-75676318D01*
X155866492Y-75709990D01*
X155799148Y-75171242D02*
X155832820Y-75272257D01*
X155967507Y-75406944D01*
X156068522Y-75440616D01*
X156135866Y-75440616D01*
X156236881Y-75406944D01*
X156438911Y-75204914D01*
X156472583Y-75103898D01*
X156472583Y-75036555D01*
X156438911Y-74935540D01*
X156304224Y-74800853D01*
X156203209Y-74767181D01*
X155327744Y-74767181D02*
X155428759Y-74800853D01*
X155529774Y-74767181D01*
X156135866Y-74161089D01*
X154822667Y-74194761D02*
X154856339Y-74295776D01*
X154991026Y-74430463D01*
X155092041Y-74464135D01*
X155193057Y-74430463D01*
X155462431Y-74161089D01*
X155496102Y-74060074D01*
X155462431Y-73959059D01*
X155327744Y-73824372D01*
X155226728Y-73790700D01*
X155125713Y-73824372D01*
X155058370Y-73891715D01*
X155327744Y-74295776D01*
X162321030Y-82623137D02*
X162186343Y-82488450D01*
X162085327Y-82454779D01*
X161950640Y-82454779D01*
X161782282Y-82555794D01*
X161546579Y-82791496D01*
X161445564Y-82959855D01*
X161445564Y-83094542D01*
X161479236Y-83195557D01*
X161613923Y-83330244D01*
X161714938Y-83363916D01*
X161849625Y-83363916D01*
X162017984Y-83262901D01*
X162253686Y-83027198D01*
X162354701Y-82858840D01*
X162354701Y-82724153D01*
X162321030Y-82623137D01*
X161479236Y-82252748D02*
X160772129Y-82959855D01*
X161445564Y-82286420D02*
X161411892Y-82185405D01*
X161277205Y-82050718D01*
X161176190Y-82017046D01*
X161108847Y-82017046D01*
X161007831Y-82050718D01*
X160805801Y-82252748D01*
X160772129Y-82353763D01*
X160772129Y-82421107D01*
X160805801Y-82522122D01*
X160940488Y-82656809D01*
X161041503Y-82690481D01*
X160065022Y-81781343D02*
X160435411Y-81410954D01*
X160536427Y-81377282D01*
X160637442Y-81410954D01*
X160772129Y-81545641D01*
X160805801Y-81646656D01*
X160098694Y-81747672D02*
X160132366Y-81848687D01*
X160300724Y-82017046D01*
X160401740Y-82050718D01*
X160502755Y-82017046D01*
X160570098Y-81949702D01*
X160603770Y-81848687D01*
X160570098Y-81747672D01*
X160401740Y-81579313D01*
X160368068Y-81478298D01*
X159728305Y-81444626D02*
X160199709Y-80973221D01*
X160132366Y-81040565D02*
X160132366Y-80973221D01*
X160098694Y-80872206D01*
X159997679Y-80771191D01*
X159896663Y-80737519D01*
X159795648Y-80771191D01*
X159425259Y-81141580D01*
X159795648Y-80771191D02*
X159829320Y-80670176D01*
X159795648Y-80569160D01*
X159694633Y-80468145D01*
X159593618Y-80434473D01*
X159492602Y-80468145D01*
X159122213Y-80838534D01*
X159256900Y-80030412D02*
X158549793Y-80737519D01*
X159223228Y-80064084D02*
X159189557Y-79963069D01*
X159054870Y-79828382D01*
X158953854Y-79794710D01*
X158886511Y-79794710D01*
X158785496Y-79828382D01*
X158583465Y-80030412D01*
X158549793Y-80131428D01*
X158549793Y-80198771D01*
X158583465Y-80299786D01*
X158718152Y-80434473D01*
X158819167Y-80468145D01*
X158415106Y-79592680D02*
X157876358Y-79053932D01*
X157539641Y-78717214D02*
X157000893Y-78178466D01*
X156462145Y-78111123D02*
X156327458Y-78043779D01*
X156159099Y-77875420D01*
X156125427Y-77774405D01*
X156125427Y-77707062D01*
X156159099Y-77606046D01*
X156226443Y-77538703D01*
X156327458Y-77505031D01*
X156394801Y-77505031D01*
X156495817Y-77538703D01*
X156664175Y-77639718D01*
X156765191Y-77673390D01*
X156832534Y-77673390D01*
X156933549Y-77639718D01*
X157000893Y-77572375D01*
X157034565Y-77471359D01*
X157034565Y-77404016D01*
X157000893Y-77303001D01*
X156832534Y-77134642D01*
X156697847Y-77067298D01*
X156293786Y-76595894D02*
X156159099Y-76461207D01*
X156058084Y-76427535D01*
X155923397Y-76427535D01*
X155755038Y-76528550D01*
X155519336Y-76764253D01*
X155418321Y-76932611D01*
X155418321Y-77067298D01*
X155451992Y-77168314D01*
X155586679Y-77303001D01*
X155687695Y-77336672D01*
X155822382Y-77336672D01*
X155990740Y-77235657D01*
X156226443Y-76999955D01*
X156327458Y-76831596D01*
X156327458Y-76696909D01*
X156293786Y-76595894D01*
X154980588Y-76696909D02*
X155687695Y-75989802D01*
X154307153Y-75888787D02*
X154307153Y-75956130D01*
X154374496Y-76090817D01*
X154441840Y-76158161D01*
X154576527Y-76225504D01*
X154711214Y-76225504D01*
X154812229Y-76191833D01*
X154980588Y-76090817D01*
X155081603Y-75989802D01*
X155182618Y-75821443D01*
X155216290Y-75720428D01*
X155216290Y-75585741D01*
X155148946Y-75451054D01*
X155081603Y-75383711D01*
X154946916Y-75316367D01*
X154879572Y-75316367D01*
X154239809Y-75148008D02*
X154340824Y-75181680D01*
X154408168Y-75181680D01*
X154509183Y-75148008D01*
X154542855Y-75114337D01*
X154576527Y-75013321D01*
X154576527Y-74945978D01*
X154542855Y-74844963D01*
X154408168Y-74710276D01*
X154307153Y-74676604D01*
X154239809Y-74676604D01*
X154138794Y-74710276D01*
X154105122Y-74743947D01*
X154071450Y-74844963D01*
X154071450Y-74912306D01*
X154105122Y-75013321D01*
X154239809Y-75148008D01*
X154273481Y-75249024D01*
X154273481Y-75316367D01*
X154239809Y-75417382D01*
X154105122Y-75552069D01*
X154004107Y-75585741D01*
X153936763Y-75585741D01*
X153835748Y-75552069D01*
X153701061Y-75417382D01*
X153667389Y-75316367D01*
X153667389Y-75249024D01*
X153701061Y-75148008D01*
X153835748Y-75013321D01*
X153936763Y-74979650D01*
X154004107Y-74979650D01*
X154105122Y-75013321D01*
X159229626Y-83222831D02*
X159936733Y-82515724D01*
X159600015Y-82852442D02*
X159195954Y-82448381D01*
X158825565Y-82818770D02*
X159532672Y-82111663D01*
X158657206Y-81707602D02*
X158185802Y-82179007D01*
X158960252Y-82010648D02*
X158589863Y-82381037D01*
X158488847Y-82414709D01*
X158387832Y-82381037D01*
X158286817Y-82280022D01*
X158253145Y-82179007D01*
X158253145Y-82111663D01*
X158017443Y-81067839D02*
X157445023Y-81640259D01*
X157411351Y-81741274D01*
X157411351Y-81808618D01*
X157445023Y-81909633D01*
X157546038Y-82010648D01*
X157647054Y-82044320D01*
X157579710Y-81505572D02*
X157613382Y-81606587D01*
X157748069Y-81741274D01*
X157849084Y-81774946D01*
X157916428Y-81774946D01*
X158017443Y-81741274D01*
X158219473Y-81539244D01*
X158253145Y-81438228D01*
X158253145Y-81370885D01*
X158219473Y-81269870D01*
X158084786Y-81135183D01*
X157983771Y-81101511D01*
X157108306Y-81101511D02*
X157209321Y-81135183D01*
X157276664Y-81135183D01*
X157377680Y-81101511D01*
X157579710Y-80899480D01*
X157613382Y-80798465D01*
X157613382Y-80731122D01*
X157579710Y-80630106D01*
X157478695Y-80529091D01*
X157377680Y-80495419D01*
X157310336Y-80495419D01*
X157209321Y-80529091D01*
X157007290Y-80731122D01*
X156973619Y-80832137D01*
X156973619Y-80899480D01*
X157007290Y-81000496D01*
X157108306Y-81101511D01*
X157040962Y-80091358D02*
X156569558Y-80562763D01*
X156973619Y-80158702D02*
X156973619Y-80091358D01*
X156939947Y-79990343D01*
X156838932Y-79889328D01*
X156737916Y-79855656D01*
X156636901Y-79889328D01*
X156266512Y-80259717D01*
X155593077Y-79586282D02*
X155929794Y-79923000D01*
X156636901Y-79215893D01*
X155054329Y-79047534D02*
X155424718Y-78677145D01*
X155525733Y-78643473D01*
X155626749Y-78677145D01*
X155761436Y-78811832D01*
X155795107Y-78912847D01*
X155088001Y-79013862D02*
X155121672Y-79114878D01*
X155290031Y-79283236D01*
X155391046Y-79316908D01*
X155492062Y-79283236D01*
X155559405Y-79215893D01*
X155593077Y-79114878D01*
X155559405Y-79013862D01*
X155391046Y-78845504D01*
X155357375Y-78744488D01*
X154717611Y-78710817D02*
X155424718Y-78003710D01*
X155155344Y-78273084D02*
X155121672Y-78172069D01*
X154986985Y-78037382D01*
X154885970Y-78003710D01*
X154818627Y-78003710D01*
X154717611Y-78037382D01*
X154515581Y-78239412D01*
X154481909Y-78340427D01*
X154481909Y-78407771D01*
X154515581Y-78508786D01*
X154650268Y-78643473D01*
X154751283Y-78677145D01*
X154145192Y-78071053D02*
X154044176Y-78037382D01*
X153909489Y-77902695D01*
X153875817Y-77801679D01*
X153909489Y-77700664D01*
X153943161Y-77666992D01*
X154044176Y-77633321D01*
X154145192Y-77666992D01*
X154246207Y-77768008D01*
X154347222Y-77801679D01*
X154448237Y-77768008D01*
X154481909Y-77734336D01*
X154515581Y-77633321D01*
X154481909Y-77532305D01*
X154380894Y-77431290D01*
X154279879Y-77397618D01*
X160717581Y-86044861D02*
X160077817Y-86347907D01*
X160380863Y-85708143D01*
X159269695Y-85539785D02*
X159673756Y-85943846D01*
X159471726Y-85741815D02*
X160178833Y-85034708D01*
X160145161Y-85203067D01*
X160145161Y-85337754D01*
X160178833Y-85438769D01*
X159033993Y-85169395D02*
X158966650Y-85169395D01*
X158966650Y-85236739D01*
X159033993Y-85236739D01*
X159033993Y-85169395D01*
X158966650Y-85236739D01*
X159202352Y-84058227D02*
X159135008Y-83990884D01*
X159033993Y-83957212D01*
X158966650Y-83957212D01*
X158865634Y-83990884D01*
X158697276Y-84091899D01*
X158528917Y-84260258D01*
X158427901Y-84428617D01*
X158394230Y-84529632D01*
X158394230Y-84596976D01*
X158427901Y-84697991D01*
X158495245Y-84765334D01*
X158596260Y-84799006D01*
X158663604Y-84799006D01*
X158764619Y-84765334D01*
X158932978Y-84664319D01*
X159101337Y-84495960D01*
X159202352Y-84327602D01*
X159236024Y-84226586D01*
X159236024Y-84159243D01*
X159202352Y-84058227D01*
X158091184Y-83081747D02*
X158091184Y-83014403D01*
X158057512Y-82913388D01*
X157889153Y-82745029D01*
X157788138Y-82711357D01*
X157720795Y-82711357D01*
X157619779Y-82745029D01*
X157552436Y-82812373D01*
X157485092Y-82947060D01*
X157485092Y-83755182D01*
X157047360Y-83317449D01*
X157316734Y-82172609D02*
X157249390Y-82105266D01*
X157148375Y-82071594D01*
X157081031Y-82071594D01*
X156980016Y-82105266D01*
X156811657Y-82206281D01*
X156643299Y-82374640D01*
X156542283Y-82542999D01*
X156508612Y-82644014D01*
X156508612Y-82711357D01*
X156542283Y-82812373D01*
X156609627Y-82879716D01*
X156710642Y-82913388D01*
X156777986Y-82913388D01*
X156879001Y-82879716D01*
X157047360Y-82778701D01*
X157215718Y-82610342D01*
X157316734Y-82441983D01*
X157350405Y-82340968D01*
X157350405Y-82273625D01*
X157316734Y-82172609D01*
X156744314Y-81734877D02*
X156744314Y-81667533D01*
X156710642Y-81566518D01*
X156542283Y-81398159D01*
X156441268Y-81364487D01*
X156373925Y-81364487D01*
X156272909Y-81398159D01*
X156205566Y-81465503D01*
X156138222Y-81600190D01*
X156138222Y-82408312D01*
X155700490Y-81970579D01*
X156070879Y-81061442D02*
X156070879Y-80994098D01*
X156037207Y-80893083D01*
X155868848Y-80724724D01*
X155767833Y-80691052D01*
X155700490Y-80691052D01*
X155599474Y-80724724D01*
X155532131Y-80792068D01*
X155464787Y-80926755D01*
X155464787Y-81734877D01*
X155027055Y-81297144D01*
X154993383Y-80724724D02*
X154454635Y-80185976D01*
X154420963Y-79276839D02*
X154353620Y-79209495D01*
X154252604Y-79175824D01*
X154185261Y-79175824D01*
X154084246Y-79209495D01*
X153915887Y-79310511D01*
X153747528Y-79478869D01*
X153646513Y-79647228D01*
X153612841Y-79748243D01*
X153612841Y-79815587D01*
X153646513Y-79916602D01*
X153713856Y-79983946D01*
X153814872Y-80017617D01*
X153882215Y-80017617D01*
X153983230Y-79983946D01*
X154151589Y-79882930D01*
X154319948Y-79714572D01*
X154420963Y-79546213D01*
X154454635Y-79445198D01*
X154454635Y-79377854D01*
X154420963Y-79276839D01*
X153343467Y-78670747D02*
X152872062Y-79142152D01*
X153781200Y-78569732D02*
X153444482Y-79243167D01*
X153006750Y-78805434D01*
X152771047Y-78502388D02*
X152232299Y-77963640D01*
X152299643Y-77290205D02*
X152299643Y-77222862D01*
X152265971Y-77121847D01*
X152097612Y-76953488D01*
X151996597Y-76919816D01*
X151929253Y-76919816D01*
X151828238Y-76953488D01*
X151760895Y-77020831D01*
X151693551Y-77155518D01*
X151693551Y-77963640D01*
X151255818Y-77525908D01*
X151255818Y-76717786D02*
X151356834Y-76751457D01*
X151424177Y-76751457D01*
X151525192Y-76717786D01*
X151558864Y-76684114D01*
X151592536Y-76583099D01*
X151592536Y-76515755D01*
X151558864Y-76414740D01*
X151424177Y-76280053D01*
X151323162Y-76246381D01*
X151255818Y-76246381D01*
X151154803Y-76280053D01*
X151121131Y-76313725D01*
X151087460Y-76414740D01*
X151087460Y-76482083D01*
X151121131Y-76583099D01*
X151255818Y-76717786D01*
X151289490Y-76818801D01*
X151289490Y-76886144D01*
X151255818Y-76987160D01*
X151121131Y-77121847D01*
X151020116Y-77155518D01*
X150952773Y-77155518D01*
X150851757Y-77121847D01*
X150717070Y-76987160D01*
X150683399Y-76886144D01*
X150683399Y-76818801D01*
X150717070Y-76717786D01*
X150851757Y-76583099D01*
X150952773Y-76549427D01*
X151020116Y-76549427D01*
X151121131Y-76583099D01*
D11*
%TO.C,C8*%
X155966655Y-85282131D02*
X156014274Y-85329750D01*
X156157131Y-85377369D01*
X156252369Y-85377369D01*
X156395227Y-85329750D01*
X156490465Y-85234512D01*
X156538084Y-85139274D01*
X156585703Y-84948798D01*
X156585703Y-84805941D01*
X156538084Y-84615465D01*
X156490465Y-84520227D01*
X156395227Y-84424989D01*
X156252369Y-84377369D01*
X156157131Y-84377369D01*
X156014274Y-84424989D01*
X155966655Y-84472608D01*
X155395227Y-84805941D02*
X155490465Y-84758322D01*
X155538084Y-84710703D01*
X155585703Y-84615465D01*
X155585703Y-84567846D01*
X155538084Y-84472608D01*
X155490465Y-84424989D01*
X155395227Y-84377369D01*
X155204750Y-84377369D01*
X155109512Y-84424989D01*
X155061893Y-84472608D01*
X155014274Y-84567846D01*
X155014274Y-84615465D01*
X155061893Y-84710703D01*
X155109512Y-84758322D01*
X155204750Y-84805941D01*
X155395227Y-84805941D01*
X155490465Y-84853560D01*
X155538084Y-84901179D01*
X155585703Y-84996417D01*
X155585703Y-85186893D01*
X155538084Y-85282131D01*
X155490465Y-85329750D01*
X155395227Y-85377369D01*
X155204750Y-85377369D01*
X155109512Y-85329750D01*
X155061893Y-85282131D01*
X155014274Y-85186893D01*
X155014274Y-84996417D01*
X155061893Y-84901179D01*
X155109512Y-84853560D01*
X155204750Y-84805941D01*
%TO.C,C6*%
X153391655Y-82532131D02*
X153439274Y-82579750D01*
X153582131Y-82627369D01*
X153677369Y-82627369D01*
X153820227Y-82579750D01*
X153915465Y-82484512D01*
X153963084Y-82389274D01*
X154010703Y-82198798D01*
X154010703Y-82055941D01*
X153963084Y-81865465D01*
X153915465Y-81770227D01*
X153820227Y-81674989D01*
X153677369Y-81627369D01*
X153582131Y-81627369D01*
X153439274Y-81674989D01*
X153391655Y-81722608D01*
X152534512Y-81627369D02*
X152724989Y-81627369D01*
X152820227Y-81674989D01*
X152867846Y-81722608D01*
X152963084Y-81865465D01*
X153010703Y-82055941D01*
X153010703Y-82436893D01*
X152963084Y-82532131D01*
X152915465Y-82579750D01*
X152820227Y-82627369D01*
X152629750Y-82627369D01*
X152534512Y-82579750D01*
X152486893Y-82532131D01*
X152439274Y-82436893D01*
X152439274Y-82198798D01*
X152486893Y-82103560D01*
X152534512Y-82055941D01*
X152629750Y-82008322D01*
X152820227Y-82008322D01*
X152915465Y-82055941D01*
X152963084Y-82103560D01*
X153010703Y-82198798D01*
%TO.C,C4*%
X153266655Y-93557131D02*
X153314274Y-93604750D01*
X153457131Y-93652369D01*
X153552369Y-93652369D01*
X153695227Y-93604750D01*
X153790465Y-93509512D01*
X153838084Y-93414274D01*
X153885703Y-93223798D01*
X153885703Y-93080941D01*
X153838084Y-92890465D01*
X153790465Y-92795227D01*
X153695227Y-92699989D01*
X153552369Y-92652369D01*
X153457131Y-92652369D01*
X153314274Y-92699989D01*
X153266655Y-92747608D01*
X152409512Y-92985703D02*
X152409512Y-93652369D01*
X152647608Y-92604750D02*
X152885703Y-93319036D01*
X152266655Y-93319036D01*
D12*
%TO.C,C8*%
X154464989Y-87238737D02*
X154464989Y-87761241D01*
X155934989Y-87238737D02*
X155934989Y-87761241D01*
%TO.C,C6*%
X153884989Y-84488737D02*
X153884989Y-85011241D01*
X152414989Y-84488737D02*
X152414989Y-85011241D01*
%TO.C,C4*%
X152364989Y-90201237D02*
X152364989Y-90723741D01*
X153834989Y-90201237D02*
X153834989Y-90723741D01*
%TD*%
M02*
