%TF.GenerationSoftware,KiCad,Pcbnew,6.0.4-6f826c9f35~116~ubuntu20.04.1*%
%TF.CreationDate,2022-04-28T13:53:23-05:00*%
%TF.ProjectId,opamp_inverting_single,6f70616d-705f-4696-9e76-657274696e67,1.0*%
%TF.SameCoordinates,Original*%
%TF.FileFunction,Copper,L3,Inr*%
%TF.FilePolarity,Positive*%
%FSLAX46Y46*%
G04 Gerber Fmt 4.6, Leading zero omitted, Abs format (unit mm)*
G04 Created by KiCad (PCBNEW 6.0.4-6f826c9f35~116~ubuntu20.04.1) date 2022-04-28 13:53:23*
%MOMM*%
%LPD*%
G01*
G04 APERTURE LIST*
G04 Aperture macros list*
%AMRoundRect*
0 Rectangle with rounded corners*
0 $1 Rounding radius*
0 $2 $3 $4 $5 $6 $7 $8 $9 X,Y pos of 4 corners*
0 Add a 4 corners polygon primitive as box body*
4,1,4,$2,$3,$4,$5,$6,$7,$8,$9,$2,$3,0*
0 Add four circle primitives for the rounded corners*
1,1,$1+$1,$2,$3*
1,1,$1+$1,$4,$5*
1,1,$1+$1,$6,$7*
1,1,$1+$1,$8,$9*
0 Add four rect primitives between the rounded corners*
20,1,$1+$1,$2,$3,$4,$5,0*
20,1,$1+$1,$4,$5,$6,$7,0*
20,1,$1+$1,$6,$7,$8,$9,0*
20,1,$1+$1,$8,$9,$2,$3,0*%
G04 Aperture macros list end*
%TA.AperFunction,ComponentPad*%
%ADD10RoundRect,0.250000X0.850000X0.600000X-0.850000X0.600000X-0.850000X-0.600000X0.850000X-0.600000X0*%
%TD*%
%TA.AperFunction,ComponentPad*%
%ADD11O,2.200000X1.700000*%
%TD*%
%TA.AperFunction,ViaPad*%
%ADD12C,0.508000*%
%TD*%
G04 APERTURE END LIST*
D10*
%TO.N,+5V*%
%TO.C,J3*%
X150464989Y-89999989D03*
D11*
%TO.N,GND*%
X150464989Y-87499989D03*
%TO.N,-5V*%
X150464989Y-84999989D03*
%TD*%
D12*
%TO.N,-5V*%
X153554989Y-88431589D03*
%TO.N,GND*%
X158074989Y-95399989D03*
%TO.N,+5V*%
X159199989Y-92224989D03*
%TO.N,GND*%
X152024989Y-87499989D03*
X154349989Y-80724989D03*
X147849989Y-103049989D03*
X147904989Y-94539989D03*
%TO.N,+5V*%
X152050712Y-90914266D03*
%TO.N,-5V*%
X151977489Y-84637489D03*
%TO.N,GND*%
X147904279Y-80049989D03*
X147884989Y-71549989D03*
%TD*%
%TA.AperFunction,Conductor*%
%TO.N,-5V*%
G36*
X156767110Y-69328491D02*
G01*
X156813603Y-69382147D01*
X156824989Y-69434489D01*
X156824989Y-74799989D01*
X158324989Y-76299989D01*
X163698989Y-76299989D01*
X163767110Y-76319991D01*
X163813603Y-76373647D01*
X163824989Y-76425989D01*
X163824989Y-85695799D01*
X163804987Y-85763920D01*
X163751331Y-85810413D01*
X163681057Y-85820517D01*
X163616477Y-85791023D01*
X163609894Y-85784894D01*
X163424989Y-85599989D01*
X163414868Y-85600278D01*
X162373337Y-85630036D01*
X159924989Y-85699989D01*
X159914433Y-85708786D01*
X159914432Y-85708786D01*
X159498633Y-86055285D01*
X159395504Y-86141227D01*
X159360034Y-86170785D01*
X159294897Y-86199029D01*
X159279371Y-86199989D01*
X158350989Y-86199989D01*
X158282868Y-86179987D01*
X158236375Y-86126331D01*
X158224989Y-86073989D01*
X158224989Y-85299989D01*
X158140469Y-84201232D01*
X158126231Y-84016133D01*
X158126231Y-84016132D01*
X158124989Y-83999989D01*
X157946151Y-83731732D01*
X157924989Y-83661840D01*
X157924989Y-82215055D01*
X157944991Y-82146934D01*
X157998647Y-82100441D01*
X158039581Y-82089572D01*
X159006950Y-82001629D01*
X159024989Y-81999989D01*
X159024989Y-80499989D01*
X159014162Y-80492771D01*
X159014161Y-80492770D01*
X158740512Y-80310337D01*
X158740510Y-80310336D01*
X158724989Y-80299989D01*
X157024989Y-80299989D01*
X156924989Y-80399989D01*
X157024989Y-86199989D01*
X157500978Y-86390385D01*
X157543277Y-86418277D01*
X157924989Y-86799989D01*
X159278108Y-86896640D01*
X159344630Y-86921445D01*
X159358225Y-86933225D01*
X159824989Y-87399989D01*
X159835110Y-87399700D01*
X161441556Y-87353801D01*
X163324989Y-87299989D01*
X163337598Y-87295786D01*
X163607803Y-87205718D01*
X163607804Y-87205717D01*
X163624989Y-87199989D01*
X163624989Y-87193774D01*
X163627082Y-87192319D01*
X163694435Y-87169868D01*
X163763234Y-87187395D01*
X163811636Y-87239336D01*
X163824989Y-87295786D01*
X163824989Y-98173989D01*
X163804987Y-98242110D01*
X163751331Y-98288603D01*
X163698989Y-98299989D01*
X158324989Y-98299989D01*
X156824989Y-99799989D01*
X156824989Y-105165489D01*
X156804987Y-105233610D01*
X156751331Y-105280103D01*
X156698989Y-105291489D01*
X142459489Y-105291489D01*
X142391368Y-105271487D01*
X142344875Y-105217831D01*
X142333489Y-105165489D01*
X142333489Y-103039275D01*
X147082739Y-103039275D01*
X147099432Y-103209525D01*
X147153429Y-103371845D01*
X147157076Y-103377867D01*
X147157077Y-103377869D01*
X147238395Y-103512143D01*
X147238398Y-103512146D01*
X147242045Y-103518169D01*
X147360878Y-103641223D01*
X147504019Y-103734892D01*
X147510623Y-103737348D01*
X147510625Y-103737349D01*
X147657746Y-103792063D01*
X147657748Y-103792063D01*
X147664356Y-103794521D01*
X147743443Y-103805074D01*
X147826938Y-103816215D01*
X147826942Y-103816215D01*
X147833919Y-103817146D01*
X147840930Y-103816508D01*
X147840934Y-103816508D01*
X147997262Y-103802281D01*
X147997264Y-103802281D01*
X148004281Y-103801642D01*
X148010979Y-103799466D01*
X148010982Y-103799465D01*
X148160278Y-103750955D01*
X148160280Y-103750954D01*
X148166974Y-103748779D01*
X148313913Y-103661186D01*
X148437794Y-103543216D01*
X148450391Y-103524257D01*
X148528559Y-103406603D01*
X148532460Y-103400732D01*
X148593207Y-103240815D01*
X148617015Y-103071414D01*
X148617314Y-103049989D01*
X148598245Y-102879989D01*
X148541988Y-102718439D01*
X148451337Y-102573367D01*
X148438148Y-102560085D01*
X148335761Y-102456981D01*
X148330798Y-102451983D01*
X148265528Y-102410562D01*
X148192305Y-102364093D01*
X148192302Y-102364091D01*
X148186362Y-102360322D01*
X148179729Y-102357960D01*
X148031843Y-102305300D01*
X148031838Y-102305299D01*
X148025208Y-102302938D01*
X148018220Y-102302105D01*
X148018217Y-102302104D01*
X147902644Y-102288323D01*
X147855346Y-102282683D01*
X147848343Y-102283419D01*
X147848342Y-102283419D01*
X147803947Y-102288085D01*
X147685217Y-102300564D01*
X147675060Y-102304022D01*
X147529945Y-102353423D01*
X147529942Y-102353424D01*
X147523278Y-102355693D01*
X147377577Y-102445329D01*
X147372546Y-102450256D01*
X147372543Y-102450258D01*
X147365678Y-102456981D01*
X147255355Y-102565017D01*
X147251536Y-102570942D01*
X147251535Y-102570944D01*
X147246124Y-102579341D01*
X147162687Y-102708809D01*
X147160276Y-102715432D01*
X147160275Y-102715435D01*
X147106589Y-102862936D01*
X147106588Y-102862941D01*
X147104179Y-102869559D01*
X147082739Y-103039275D01*
X142333489Y-103039275D01*
X142333489Y-95389275D01*
X157307739Y-95389275D01*
X157324432Y-95559525D01*
X157378429Y-95721845D01*
X157382076Y-95727867D01*
X157382077Y-95727869D01*
X157463395Y-95862143D01*
X157463398Y-95862146D01*
X157467045Y-95868169D01*
X157585878Y-95991223D01*
X157729019Y-96084892D01*
X157735623Y-96087348D01*
X157735625Y-96087349D01*
X157882746Y-96142063D01*
X157882748Y-96142063D01*
X157889356Y-96144521D01*
X157968443Y-96155074D01*
X158051938Y-96166215D01*
X158051942Y-96166215D01*
X158058919Y-96167146D01*
X158065930Y-96166508D01*
X158065934Y-96166508D01*
X158222262Y-96152281D01*
X158222264Y-96152281D01*
X158229281Y-96151642D01*
X158235979Y-96149466D01*
X158235982Y-96149465D01*
X158385278Y-96100955D01*
X158385280Y-96100954D01*
X158391974Y-96098779D01*
X158538913Y-96011186D01*
X158662794Y-95893216D01*
X158676068Y-95873238D01*
X158753559Y-95756603D01*
X158757460Y-95750732D01*
X158818207Y-95590815D01*
X158842015Y-95421414D01*
X158842314Y-95399989D01*
X158823245Y-95229989D01*
X158795804Y-95151186D01*
X158769303Y-95075086D01*
X158769302Y-95075084D01*
X158766988Y-95068439D01*
X158748015Y-95038075D01*
X158680070Y-94929341D01*
X158676337Y-94923367D01*
X158663148Y-94910085D01*
X158560761Y-94806981D01*
X158555798Y-94801983D01*
X158454026Y-94737397D01*
X158417305Y-94714093D01*
X158417302Y-94714091D01*
X158411362Y-94710322D01*
X158399814Y-94706210D01*
X158256843Y-94655300D01*
X158256838Y-94655299D01*
X158250208Y-94652938D01*
X158243220Y-94652105D01*
X158243217Y-94652104D01*
X158127644Y-94638323D01*
X158080346Y-94632683D01*
X158073343Y-94633419D01*
X158073342Y-94633419D01*
X158028947Y-94638085D01*
X157910217Y-94650564D01*
X157900060Y-94654022D01*
X157754945Y-94703423D01*
X157754942Y-94703424D01*
X157748278Y-94705693D01*
X157602577Y-94795329D01*
X157597546Y-94800256D01*
X157597543Y-94800258D01*
X157590678Y-94806981D01*
X157480355Y-94915017D01*
X157476536Y-94920942D01*
X157476535Y-94920944D01*
X157471124Y-94929341D01*
X157387687Y-95058809D01*
X157385276Y-95065432D01*
X157385275Y-95065435D01*
X157331589Y-95212936D01*
X157331588Y-95212941D01*
X157329179Y-95219559D01*
X157307739Y-95389275D01*
X142333489Y-95389275D01*
X142333489Y-94529275D01*
X147137739Y-94529275D01*
X147154432Y-94699525D01*
X147208429Y-94861845D01*
X147212076Y-94867867D01*
X147212077Y-94867869D01*
X147293395Y-95002143D01*
X147293398Y-95002146D01*
X147297045Y-95008169D01*
X147415878Y-95131223D01*
X147559019Y-95224892D01*
X147565623Y-95227348D01*
X147565625Y-95227349D01*
X147712746Y-95282063D01*
X147712748Y-95282063D01*
X147719356Y-95284521D01*
X147798443Y-95295074D01*
X147881938Y-95306215D01*
X147881942Y-95306215D01*
X147888919Y-95307146D01*
X147895930Y-95306508D01*
X147895934Y-95306508D01*
X148052262Y-95292281D01*
X148052264Y-95292281D01*
X148059281Y-95291642D01*
X148065979Y-95289466D01*
X148065982Y-95289465D01*
X148215278Y-95240955D01*
X148215280Y-95240954D01*
X148221974Y-95238779D01*
X148368913Y-95151186D01*
X148492794Y-95033216D01*
X148506068Y-95013238D01*
X148567387Y-94920944D01*
X148587460Y-94890732D01*
X148648207Y-94730815D01*
X148659589Y-94649828D01*
X148671464Y-94565336D01*
X148671464Y-94565333D01*
X148672015Y-94561414D01*
X148672314Y-94539989D01*
X148653245Y-94369989D01*
X148596988Y-94208439D01*
X148506337Y-94063367D01*
X148493148Y-94050085D01*
X148390761Y-93946981D01*
X148385798Y-93941983D01*
X148320528Y-93900562D01*
X148247305Y-93854093D01*
X148247302Y-93854091D01*
X148241362Y-93850322D01*
X148234729Y-93847960D01*
X148086843Y-93795300D01*
X148086838Y-93795299D01*
X148080208Y-93792938D01*
X148073220Y-93792105D01*
X148073217Y-93792104D01*
X147957644Y-93778323D01*
X147910346Y-93772683D01*
X147903343Y-93773419D01*
X147903342Y-93773419D01*
X147858947Y-93778085D01*
X147740217Y-93790564D01*
X147730060Y-93794022D01*
X147584945Y-93843423D01*
X147584942Y-93843424D01*
X147578278Y-93845693D01*
X147432577Y-93935329D01*
X147427546Y-93940256D01*
X147427543Y-93940258D01*
X147420678Y-93946981D01*
X147310355Y-94055017D01*
X147306536Y-94060942D01*
X147306535Y-94060944D01*
X147301124Y-94069341D01*
X147217687Y-94198809D01*
X147215276Y-94205432D01*
X147215275Y-94205435D01*
X147161589Y-94352936D01*
X147161588Y-94352941D01*
X147159179Y-94359559D01*
X147137739Y-94529275D01*
X142333489Y-94529275D01*
X142333489Y-92214275D01*
X158432739Y-92214275D01*
X158449432Y-92384525D01*
X158503429Y-92546845D01*
X158507076Y-92552867D01*
X158507077Y-92552869D01*
X158588395Y-92687143D01*
X158588398Y-92687146D01*
X158592045Y-92693169D01*
X158710878Y-92816223D01*
X158854019Y-92909892D01*
X158860623Y-92912348D01*
X158860625Y-92912349D01*
X159007746Y-92967063D01*
X159007748Y-92967063D01*
X159014356Y-92969521D01*
X159093443Y-92980074D01*
X159176938Y-92991215D01*
X159176942Y-92991215D01*
X159183919Y-92992146D01*
X159190930Y-92991508D01*
X159190934Y-92991508D01*
X159347262Y-92977281D01*
X159347264Y-92977281D01*
X159354281Y-92976642D01*
X159360979Y-92974466D01*
X159360982Y-92974465D01*
X159510278Y-92925955D01*
X159510280Y-92925954D01*
X159516974Y-92923779D01*
X159663913Y-92836186D01*
X159787794Y-92718216D01*
X159801068Y-92698238D01*
X159878559Y-92581603D01*
X159882460Y-92575732D01*
X159943207Y-92415815D01*
X159967015Y-92246414D01*
X159967314Y-92224989D01*
X159948245Y-92054989D01*
X159891988Y-91893439D01*
X159801337Y-91748367D01*
X159788148Y-91735085D01*
X159734225Y-91680785D01*
X159680798Y-91626983D01*
X159615528Y-91585562D01*
X159542305Y-91539093D01*
X159542302Y-91539091D01*
X159536362Y-91535322D01*
X159529729Y-91532960D01*
X159381843Y-91480300D01*
X159381838Y-91480299D01*
X159375208Y-91477938D01*
X159368220Y-91477105D01*
X159368217Y-91477104D01*
X159252644Y-91463323D01*
X159205346Y-91457683D01*
X159198343Y-91458419D01*
X159198342Y-91458419D01*
X159153947Y-91463085D01*
X159035217Y-91475564D01*
X159025060Y-91479022D01*
X158879945Y-91528423D01*
X158879942Y-91528424D01*
X158873278Y-91530693D01*
X158727577Y-91620329D01*
X158722546Y-91625256D01*
X158722543Y-91625258D01*
X158687342Y-91659730D01*
X158605355Y-91740017D01*
X158601536Y-91745942D01*
X158601535Y-91745944D01*
X158596124Y-91754341D01*
X158512687Y-91883809D01*
X158510276Y-91890432D01*
X158510275Y-91890435D01*
X158456589Y-92037936D01*
X158456588Y-92037941D01*
X158454179Y-92044559D01*
X158432739Y-92214275D01*
X142333489Y-92214275D01*
X142333489Y-91238282D01*
X142353491Y-91170161D01*
X142407147Y-91123668D01*
X142477421Y-91113564D01*
X142521821Y-91128780D01*
X142713103Y-91237664D01*
X142929814Y-91316326D01*
X142935063Y-91317275D01*
X142935066Y-91317276D01*
X143152597Y-91356612D01*
X143152604Y-91356613D01*
X143156681Y-91357350D01*
X143173878Y-91358161D01*
X143179345Y-91358419D01*
X143179352Y-91358419D01*
X143180833Y-91358489D01*
X143342879Y-91358489D01*
X143409798Y-91352811D01*
X143509398Y-91344360D01*
X143509402Y-91344359D01*
X143514709Y-91343909D01*
X143519864Y-91342571D01*
X143519870Y-91342570D01*
X143732692Y-91287332D01*
X143732696Y-91287331D01*
X143737861Y-91285990D01*
X143742727Y-91283798D01*
X143742730Y-91283797D01*
X143943191Y-91193496D01*
X143948064Y-91191301D01*
X144139308Y-91062548D01*
X144306124Y-90903413D01*
X144443743Y-90718447D01*
X144478346Y-90650389D01*
X144495986Y-90615693D01*
X144548229Y-90512938D01*
X144616596Y-90292762D01*
X144633346Y-90166381D01*
X144646187Y-90069500D01*
X144646187Y-90069495D01*
X144646887Y-90064215D01*
X144638238Y-89833831D01*
X144590896Y-89608198D01*
X144506213Y-89393768D01*
X144481387Y-89352855D01*
X144389379Y-89201232D01*
X144386612Y-89196672D01*
X144383115Y-89192642D01*
X144239012Y-89026577D01*
X144239010Y-89026575D01*
X144235512Y-89022544D01*
X144193959Y-88988473D01*
X144061362Y-88879749D01*
X144061356Y-88879745D01*
X144057234Y-88876365D01*
X144052598Y-88873726D01*
X144052595Y-88873724D01*
X143861518Y-88764957D01*
X143856875Y-88762314D01*
X143640164Y-88683652D01*
X143634915Y-88682703D01*
X143634912Y-88682702D01*
X143417381Y-88643366D01*
X143417374Y-88643365D01*
X143413297Y-88642628D01*
X143395575Y-88641792D01*
X143390633Y-88641559D01*
X143390626Y-88641559D01*
X143389145Y-88641489D01*
X143227099Y-88641489D01*
X143160180Y-88647167D01*
X143060580Y-88655618D01*
X143060576Y-88655619D01*
X143055269Y-88656069D01*
X143050114Y-88657407D01*
X143050108Y-88657408D01*
X142837286Y-88712646D01*
X142837282Y-88712647D01*
X142832117Y-88713988D01*
X142827251Y-88716180D01*
X142827248Y-88716181D01*
X142680360Y-88782349D01*
X142621914Y-88808677D01*
X142617481Y-88811661D01*
X142617480Y-88811662D01*
X142529856Y-88870654D01*
X142462178Y-88892105D01*
X142393646Y-88873561D01*
X142346018Y-88820910D01*
X142333489Y-88766134D01*
X142333489Y-87435763D01*
X148853091Y-87435763D01*
X148861740Y-87666147D01*
X148909082Y-87891780D01*
X148911040Y-87896739D01*
X148911041Y-87896741D01*
X148946823Y-87987345D01*
X148993765Y-88106210D01*
X148996532Y-88110769D01*
X148996533Y-88110772D01*
X148998974Y-88114794D01*
X149113366Y-88303306D01*
X149116863Y-88307336D01*
X149203427Y-88407092D01*
X149264466Y-88477434D01*
X149300109Y-88506659D01*
X149340103Y-88565318D01*
X149342035Y-88636288D01*
X149305291Y-88697037D01*
X149286521Y-88711237D01*
X149203982Y-88762314D01*
X149140641Y-88801511D01*
X149015684Y-88926686D01*
X148922874Y-89077251D01*
X148920570Y-89084198D01*
X148881752Y-89201232D01*
X148867192Y-89245128D01*
X148856489Y-89349589D01*
X148856489Y-90650389D01*
X148856826Y-90653635D01*
X148856826Y-90653639D01*
X148865540Y-90737617D01*
X148867463Y-90756155D01*
X148923439Y-90923935D01*
X149016511Y-91074337D01*
X149141686Y-91199294D01*
X149147916Y-91203134D01*
X149147917Y-91203135D01*
X149278775Y-91283797D01*
X149292251Y-91292104D01*
X149368143Y-91317276D01*
X149453600Y-91345621D01*
X149453602Y-91345621D01*
X149460128Y-91347786D01*
X149466964Y-91348486D01*
X149466967Y-91348487D01*
X149504682Y-91352351D01*
X149564589Y-91358489D01*
X151365389Y-91358489D01*
X151365389Y-91360018D01*
X151428593Y-91375033D01*
X151456744Y-91396919D01*
X151561601Y-91505500D01*
X151704742Y-91599169D01*
X151711346Y-91601625D01*
X151711348Y-91601626D01*
X151858469Y-91656340D01*
X151858471Y-91656340D01*
X151865079Y-91658798D01*
X151944166Y-91669351D01*
X152027661Y-91680492D01*
X152027665Y-91680492D01*
X152034642Y-91681423D01*
X152041653Y-91680785D01*
X152041657Y-91680785D01*
X152197985Y-91666558D01*
X152197987Y-91666558D01*
X152205004Y-91665919D01*
X152211702Y-91663743D01*
X152211705Y-91663742D01*
X152361001Y-91615232D01*
X152361003Y-91615231D01*
X152367697Y-91613056D01*
X152403081Y-91591963D01*
X152508584Y-91529071D01*
X152508586Y-91529070D01*
X152514636Y-91525463D01*
X152638517Y-91407493D01*
X152660084Y-91375033D01*
X152717732Y-91288264D01*
X152733183Y-91265009D01*
X152793930Y-91105092D01*
X152797525Y-91079510D01*
X152817187Y-90939613D01*
X152817187Y-90939610D01*
X152817738Y-90935691D01*
X152818037Y-90914266D01*
X152798968Y-90744266D01*
X152791469Y-90722729D01*
X152745026Y-90589363D01*
X152745025Y-90589361D01*
X152742711Y-90582716D01*
X152652060Y-90437644D01*
X152531521Y-90316260D01*
X152466251Y-90274839D01*
X152393028Y-90228370D01*
X152393025Y-90228368D01*
X152387085Y-90224599D01*
X152380452Y-90222237D01*
X152232566Y-90169577D01*
X152232561Y-90169576D01*
X152225931Y-90167215D01*
X152218943Y-90166382D01*
X152218940Y-90166381D01*
X152192518Y-90163231D01*
X152184570Y-90162283D01*
X152119297Y-90134356D01*
X152079484Y-90075572D01*
X152073489Y-90037169D01*
X152073489Y-89349589D01*
X152062515Y-89243823D01*
X152048306Y-89201232D01*
X152008857Y-89082991D01*
X152006539Y-89076043D01*
X151913467Y-88925641D01*
X151879873Y-88892105D01*
X151793472Y-88805855D01*
X151788292Y-88800684D01*
X151642649Y-88710908D01*
X151595157Y-88658137D01*
X151583733Y-88588065D01*
X151612007Y-88522941D01*
X151621794Y-88512479D01*
X151732267Y-88407092D01*
X151736124Y-88403413D01*
X151807608Y-88307336D01*
X151808731Y-88305827D01*
X151865442Y-88263114D01*
X151926484Y-88256147D01*
X152001937Y-88266215D01*
X152001943Y-88266215D01*
X152008919Y-88267146D01*
X152015930Y-88266508D01*
X152015934Y-88266508D01*
X152172262Y-88252281D01*
X152172264Y-88252281D01*
X152179281Y-88251642D01*
X152185979Y-88249466D01*
X152185982Y-88249465D01*
X152335278Y-88200955D01*
X152335280Y-88200954D01*
X152341974Y-88198779D01*
X152488913Y-88111186D01*
X152612794Y-87993216D01*
X152707460Y-87850732D01*
X152768207Y-87690815D01*
X152769187Y-87683843D01*
X152791464Y-87525336D01*
X152791464Y-87525333D01*
X152792015Y-87521414D01*
X152792314Y-87499989D01*
X152773245Y-87329989D01*
X152761335Y-87295786D01*
X152719303Y-87175086D01*
X152719302Y-87175084D01*
X152716988Y-87168439D01*
X152626337Y-87023367D01*
X152595325Y-86992137D01*
X152567013Y-86963627D01*
X152505798Y-86901983D01*
X152440528Y-86860562D01*
X152367305Y-86814093D01*
X152367302Y-86814091D01*
X152361362Y-86810322D01*
X152334801Y-86800864D01*
X152206843Y-86755300D01*
X152206838Y-86755299D01*
X152200208Y-86752938D01*
X152193220Y-86752105D01*
X152193217Y-86752104D01*
X152077644Y-86738323D01*
X152030346Y-86732683D01*
X152023343Y-86733419D01*
X152023342Y-86733419D01*
X151927900Y-86743450D01*
X151858062Y-86730678D01*
X151817289Y-86696084D01*
X151816612Y-86696672D01*
X151669012Y-86526577D01*
X151669010Y-86526575D01*
X151665512Y-86522544D01*
X151623959Y-86488473D01*
X151491362Y-86379749D01*
X151491356Y-86379745D01*
X151487234Y-86376365D01*
X151482591Y-86373722D01*
X151455254Y-86358160D01*
X151405948Y-86307077D01*
X151392087Y-86237447D01*
X151418071Y-86171376D01*
X151447221Y-86144138D01*
X151564567Y-86065137D01*
X151572859Y-86058470D01*
X151731889Y-85906761D01*
X151738930Y-85898803D01*
X151870130Y-85722464D01*
X151875734Y-85713427D01*
X151975346Y-85517505D01*
X151979346Y-85507654D01*
X152044523Y-85297749D01*
X152046806Y-85287365D01*
X152048850Y-85271946D01*
X152046654Y-85257782D01*
X152033467Y-85253989D01*
X148898797Y-85253989D01*
X148885266Y-85257962D01*
X148883741Y-85268569D01*
X148908466Y-85386410D01*
X148911526Y-85396606D01*
X148992252Y-85601018D01*
X148996983Y-85610550D01*
X149111005Y-85798451D01*
X149117269Y-85807041D01*
X149261316Y-85973041D01*
X149268947Y-85980461D01*
X149438900Y-86119815D01*
X149447663Y-86125837D01*
X149474700Y-86141227D01*
X149524007Y-86192309D01*
X149537869Y-86261940D01*
X149511886Y-86328011D01*
X149482736Y-86355250D01*
X149478029Y-86358419D01*
X149360670Y-86437430D01*
X149193854Y-86596565D01*
X149056235Y-86781531D01*
X149053819Y-86786282D01*
X149053817Y-86786286D01*
X149003992Y-86884286D01*
X148951749Y-86987040D01*
X148883382Y-87207216D01*
X148882681Y-87212505D01*
X148857871Y-87399700D01*
X148853091Y-87435763D01*
X142333489Y-87435763D01*
X142333489Y-86238282D01*
X142353491Y-86170161D01*
X142407147Y-86123668D01*
X142477421Y-86113564D01*
X142521821Y-86128780D01*
X142548801Y-86144138D01*
X142713103Y-86237664D01*
X142929814Y-86316326D01*
X142935063Y-86317275D01*
X142935066Y-86317276D01*
X143152597Y-86356612D01*
X143152604Y-86356613D01*
X143156681Y-86357350D01*
X143173857Y-86358160D01*
X143179345Y-86358419D01*
X143179352Y-86358419D01*
X143180833Y-86358489D01*
X143342879Y-86358489D01*
X143409798Y-86352811D01*
X143509398Y-86344360D01*
X143509402Y-86344359D01*
X143514709Y-86343909D01*
X143519864Y-86342571D01*
X143519870Y-86342570D01*
X143732692Y-86287332D01*
X143732696Y-86287331D01*
X143737861Y-86285990D01*
X143742727Y-86283798D01*
X143742730Y-86283797D01*
X143930908Y-86199029D01*
X143948064Y-86191301D01*
X144139308Y-86062548D01*
X144306124Y-85903413D01*
X144443743Y-85718447D01*
X144446296Y-85713427D01*
X144545811Y-85517693D01*
X144548229Y-85512938D01*
X144616596Y-85292762D01*
X144619355Y-85271946D01*
X144646187Y-85069500D01*
X144646187Y-85069495D01*
X144646887Y-85064215D01*
X144638238Y-84833831D01*
X144616039Y-84728032D01*
X148881128Y-84728032D01*
X148883324Y-84742196D01*
X148896511Y-84745989D01*
X150192874Y-84745989D01*
X150208113Y-84741514D01*
X150209318Y-84740124D01*
X150210989Y-84732441D01*
X150210989Y-84727874D01*
X150718989Y-84727874D01*
X150723464Y-84743113D01*
X150724854Y-84744318D01*
X150732537Y-84745989D01*
X152031181Y-84745989D01*
X152044712Y-84742016D01*
X152046237Y-84731409D01*
X152021512Y-84613568D01*
X152018452Y-84603372D01*
X151937726Y-84398960D01*
X151932995Y-84389428D01*
X151818973Y-84201527D01*
X151812709Y-84192937D01*
X151668662Y-84026937D01*
X151661031Y-84019517D01*
X151491078Y-83880163D01*
X151482311Y-83874139D01*
X151291307Y-83765413D01*
X151281643Y-83760948D01*
X151075048Y-83685958D01*
X151064781Y-83683187D01*
X150847334Y-83643866D01*
X150839105Y-83642933D01*
X150820587Y-83642059D01*
X150817612Y-83641989D01*
X150737104Y-83641989D01*
X150721865Y-83646464D01*
X150720660Y-83647854D01*
X150718989Y-83655537D01*
X150718989Y-84727874D01*
X150210989Y-84727874D01*
X150210989Y-83660104D01*
X150206514Y-83644865D01*
X150205124Y-83643660D01*
X150197441Y-83641989D01*
X150159783Y-83641989D01*
X150154474Y-83642214D01*
X149990664Y-83656113D01*
X149980192Y-83657903D01*
X149767454Y-83713119D01*
X149757414Y-83716654D01*
X149557019Y-83806926D01*
X149547733Y-83812095D01*
X149365414Y-83934839D01*
X149357119Y-83941508D01*
X149198089Y-84093217D01*
X149191048Y-84101175D01*
X149059848Y-84277514D01*
X149054244Y-84286551D01*
X148954632Y-84482473D01*
X148950632Y-84492324D01*
X148885455Y-84702229D01*
X148883172Y-84712613D01*
X148881128Y-84728032D01*
X144616039Y-84728032D01*
X144590896Y-84608198D01*
X144541245Y-84482473D01*
X144508174Y-84398733D01*
X144508173Y-84398731D01*
X144506213Y-84393768D01*
X144386612Y-84196672D01*
X144235512Y-84022544D01*
X144136682Y-83941508D01*
X144061362Y-83879749D01*
X144061356Y-83879745D01*
X144057234Y-83876365D01*
X144052598Y-83873726D01*
X144052595Y-83873724D01*
X143861518Y-83764957D01*
X143856875Y-83762314D01*
X143640164Y-83683652D01*
X143634915Y-83682703D01*
X143634912Y-83682702D01*
X143417381Y-83643366D01*
X143417374Y-83643365D01*
X143413297Y-83642628D01*
X143395575Y-83641792D01*
X143390633Y-83641559D01*
X143390626Y-83641559D01*
X143389145Y-83641489D01*
X143227099Y-83641489D01*
X143168467Y-83646464D01*
X143060580Y-83655618D01*
X143060576Y-83655619D01*
X143055269Y-83656069D01*
X143050114Y-83657407D01*
X143050108Y-83657408D01*
X142837286Y-83712646D01*
X142837282Y-83712647D01*
X142832117Y-83713988D01*
X142827251Y-83716180D01*
X142827248Y-83716181D01*
X142680360Y-83782349D01*
X142621914Y-83808677D01*
X142617481Y-83811661D01*
X142617480Y-83811662D01*
X142529856Y-83870654D01*
X142462178Y-83892105D01*
X142393646Y-83873561D01*
X142346018Y-83820910D01*
X142333489Y-83766134D01*
X142333489Y-80039275D01*
X147137029Y-80039275D01*
X147153722Y-80209525D01*
X147207719Y-80371845D01*
X147211366Y-80377867D01*
X147211367Y-80377869D01*
X147292685Y-80512143D01*
X147292688Y-80512146D01*
X147296335Y-80518169D01*
X147415168Y-80641223D01*
X147421064Y-80645081D01*
X147543176Y-80724989D01*
X147558309Y-80734892D01*
X147564913Y-80737348D01*
X147564915Y-80737349D01*
X147712036Y-80792063D01*
X147712038Y-80792063D01*
X147718646Y-80794521D01*
X147797733Y-80805074D01*
X147881228Y-80816215D01*
X147881232Y-80816215D01*
X147888209Y-80817146D01*
X147895220Y-80816508D01*
X147895224Y-80816508D01*
X148051552Y-80802281D01*
X148051554Y-80802281D01*
X148058571Y-80801642D01*
X148065269Y-80799466D01*
X148065272Y-80799465D01*
X148214568Y-80750955D01*
X148214570Y-80750954D01*
X148221264Y-80748779D01*
X148279145Y-80714275D01*
X153582739Y-80714275D01*
X153599432Y-80884525D01*
X153653429Y-81046845D01*
X153657076Y-81052867D01*
X153657077Y-81052869D01*
X153738395Y-81187143D01*
X153738398Y-81187146D01*
X153742045Y-81193169D01*
X153860878Y-81316223D01*
X154004019Y-81409892D01*
X154010623Y-81412348D01*
X154010625Y-81412349D01*
X154157746Y-81467063D01*
X154157748Y-81467063D01*
X154164356Y-81469521D01*
X154243443Y-81480074D01*
X154326938Y-81491215D01*
X154326942Y-81491215D01*
X154333919Y-81492146D01*
X154340930Y-81491508D01*
X154340934Y-81491508D01*
X154497262Y-81477281D01*
X154497264Y-81477281D01*
X154504281Y-81476642D01*
X154510979Y-81474466D01*
X154510982Y-81474465D01*
X154660278Y-81425955D01*
X154660280Y-81425954D01*
X154666974Y-81423779D01*
X154813913Y-81336186D01*
X154937794Y-81218216D01*
X154951068Y-81198238D01*
X155028559Y-81081603D01*
X155032460Y-81075732D01*
X155093207Y-80915815D01*
X155107205Y-80816215D01*
X155116464Y-80750336D01*
X155116464Y-80750333D01*
X155117015Y-80746414D01*
X155117314Y-80724989D01*
X155098245Y-80554989D01*
X155095838Y-80548075D01*
X155044303Y-80400086D01*
X155044302Y-80400084D01*
X155041988Y-80393439D01*
X154951337Y-80248367D01*
X154938148Y-80235085D01*
X154835761Y-80131981D01*
X154830798Y-80126983D01*
X154749415Y-80075336D01*
X154692305Y-80039093D01*
X154692302Y-80039091D01*
X154686362Y-80035322D01*
X154677822Y-80032281D01*
X154531843Y-79980300D01*
X154531838Y-79980299D01*
X154525208Y-79977938D01*
X154518220Y-79977105D01*
X154518217Y-79977104D01*
X154402644Y-79963323D01*
X154355346Y-79957683D01*
X154348343Y-79958419D01*
X154348342Y-79958419D01*
X154303947Y-79963085D01*
X154185217Y-79975564D01*
X154175060Y-79979022D01*
X154029945Y-80028423D01*
X154029942Y-80028424D01*
X154023278Y-80030693D01*
X153877577Y-80120329D01*
X153872546Y-80125256D01*
X153872543Y-80125258D01*
X153865678Y-80131981D01*
X153755355Y-80240017D01*
X153751536Y-80245942D01*
X153751535Y-80245944D01*
X153711853Y-80307519D01*
X153662687Y-80383809D01*
X153660276Y-80390432D01*
X153660275Y-80390435D01*
X153606589Y-80537936D01*
X153606588Y-80537941D01*
X153604179Y-80544559D01*
X153582739Y-80714275D01*
X148279145Y-80714275D01*
X148368203Y-80661186D01*
X148492084Y-80543216D01*
X148505358Y-80523238D01*
X148582849Y-80406603D01*
X148586750Y-80400732D01*
X148642359Y-80254341D01*
X148644997Y-80247397D01*
X148644998Y-80247395D01*
X148647497Y-80240815D01*
X148663738Y-80125258D01*
X148670754Y-80075336D01*
X148670754Y-80075333D01*
X148671305Y-80071414D01*
X148671604Y-80049989D01*
X148652535Y-79879989D01*
X148596278Y-79718439D01*
X148505627Y-79573367D01*
X148492438Y-79560085D01*
X148390051Y-79456981D01*
X148385088Y-79451983D01*
X148319818Y-79410562D01*
X148246595Y-79364093D01*
X148246592Y-79364091D01*
X148240652Y-79360322D01*
X148234019Y-79357960D01*
X148086133Y-79305300D01*
X148086128Y-79305299D01*
X148079498Y-79302938D01*
X148072510Y-79302105D01*
X148072507Y-79302104D01*
X147956934Y-79288323D01*
X147909636Y-79282683D01*
X147902633Y-79283419D01*
X147902632Y-79283419D01*
X147858237Y-79288085D01*
X147739507Y-79300564D01*
X147729350Y-79304022D01*
X147584235Y-79353423D01*
X147584232Y-79353424D01*
X147577568Y-79355693D01*
X147431867Y-79445329D01*
X147426836Y-79450256D01*
X147426833Y-79450258D01*
X147419968Y-79456981D01*
X147309645Y-79565017D01*
X147305826Y-79570942D01*
X147305825Y-79570944D01*
X147300414Y-79579341D01*
X147216977Y-79708809D01*
X147214566Y-79715432D01*
X147214565Y-79715435D01*
X147160879Y-79862936D01*
X147160878Y-79862941D01*
X147158469Y-79869559D01*
X147137029Y-80039275D01*
X142333489Y-80039275D01*
X142333489Y-71539275D01*
X147117739Y-71539275D01*
X147134432Y-71709525D01*
X147188429Y-71871845D01*
X147192076Y-71877867D01*
X147192077Y-71877869D01*
X147273395Y-72012143D01*
X147273398Y-72012146D01*
X147277045Y-72018169D01*
X147395878Y-72141223D01*
X147539019Y-72234892D01*
X147545623Y-72237348D01*
X147545625Y-72237349D01*
X147692746Y-72292063D01*
X147692748Y-72292063D01*
X147699356Y-72294521D01*
X147778443Y-72305074D01*
X147861938Y-72316215D01*
X147861942Y-72316215D01*
X147868919Y-72317146D01*
X147875930Y-72316508D01*
X147875934Y-72316508D01*
X148032262Y-72302281D01*
X148032264Y-72302281D01*
X148039281Y-72301642D01*
X148045979Y-72299466D01*
X148045982Y-72299465D01*
X148195278Y-72250955D01*
X148195280Y-72250954D01*
X148201974Y-72248779D01*
X148237358Y-72227686D01*
X148342861Y-72164794D01*
X148342863Y-72164793D01*
X148348913Y-72161186D01*
X148472794Y-72043216D01*
X148486068Y-72023238D01*
X148563559Y-71906603D01*
X148567460Y-71900732D01*
X148628207Y-71740815D01*
X148633590Y-71702516D01*
X148651464Y-71575336D01*
X148651464Y-71575333D01*
X148652015Y-71571414D01*
X148652314Y-71549989D01*
X148633245Y-71379989D01*
X148619499Y-71340513D01*
X148579303Y-71225086D01*
X148579302Y-71225084D01*
X148576988Y-71218439D01*
X148486337Y-71073367D01*
X148473148Y-71060085D01*
X148370761Y-70956981D01*
X148365798Y-70951983D01*
X148300528Y-70910562D01*
X148227305Y-70864093D01*
X148227302Y-70864091D01*
X148221362Y-70860322D01*
X148214729Y-70857960D01*
X148066843Y-70805300D01*
X148066838Y-70805299D01*
X148060208Y-70802938D01*
X148053220Y-70802105D01*
X148053217Y-70802104D01*
X147937644Y-70788323D01*
X147890346Y-70782683D01*
X147883343Y-70783419D01*
X147883342Y-70783419D01*
X147838947Y-70788085D01*
X147720217Y-70800564D01*
X147710060Y-70804022D01*
X147564945Y-70853423D01*
X147564942Y-70853424D01*
X147558278Y-70855693D01*
X147412577Y-70945329D01*
X147407546Y-70950256D01*
X147407543Y-70950258D01*
X147400678Y-70956981D01*
X147290355Y-71065017D01*
X147286536Y-71070942D01*
X147286535Y-71070944D01*
X147244021Y-71136913D01*
X147197687Y-71208809D01*
X147195276Y-71215432D01*
X147195275Y-71215435D01*
X147141589Y-71362936D01*
X147141588Y-71362941D01*
X147139179Y-71369559D01*
X147117739Y-71539275D01*
X142333489Y-71539275D01*
X142333489Y-69434489D01*
X142353491Y-69366368D01*
X142407147Y-69319875D01*
X142459489Y-69308489D01*
X156698989Y-69308489D01*
X156767110Y-69328491D01*
G37*
%TD.AperFunction*%
%TD*%
M02*
