%TF.GenerationSoftware,KiCad,Pcbnew,6.0.4-6f826c9f35~116~ubuntu20.04.1*%
%TF.CreationDate,2022-04-28T13:53:23-05:00*%
%TF.ProjectId,opamp_inverting_single,6f70616d-705f-4696-9e76-657274696e67,1.0*%
%TF.SameCoordinates,Original*%
%TF.FileFunction,Copper,L1,Top*%
%TF.FilePolarity,Positive*%
%FSLAX46Y46*%
G04 Gerber Fmt 4.6, Leading zero omitted, Abs format (unit mm)*
G04 Created by KiCad (PCBNEW 6.0.4-6f826c9f35~116~ubuntu20.04.1) date 2022-04-28 13:53:23*
%MOMM*%
%LPD*%
G01*
G04 APERTURE LIST*
G04 Aperture macros list*
%AMRoundRect*
0 Rectangle with rounded corners*
0 $1 Rounding radius*
0 $2 $3 $4 $5 $6 $7 $8 $9 X,Y pos of 4 corners*
0 Add a 4 corners polygon primitive as box body*
4,1,4,$2,$3,$4,$5,$6,$7,$8,$9,$2,$3,0*
0 Add four circle primitives for the rounded corners*
1,1,$1+$1,$2,$3*
1,1,$1+$1,$4,$5*
1,1,$1+$1,$6,$7*
1,1,$1+$1,$8,$9*
0 Add four rect primitives between the rounded corners*
20,1,$1+$1,$2,$3,$4,$5,0*
20,1,$1+$1,$4,$5,$6,$7,0*
20,1,$1+$1,$6,$7,$8,$9,0*
20,1,$1+$1,$8,$9,$2,$3,0*%
G04 Aperture macros list end*
%TA.AperFunction,SMDPad,CuDef*%
%ADD10RoundRect,0.150000X-0.150000X0.825000X-0.150000X-0.825000X0.150000X-0.825000X0.150000X0.825000X0*%
%TD*%
%TA.AperFunction,SMDPad,CuDef*%
%ADD11RoundRect,0.250000X-0.450000X0.350000X-0.450000X-0.350000X0.450000X-0.350000X0.450000X0.350000X0*%
%TD*%
%TA.AperFunction,SMDPad,CuDef*%
%ADD12RoundRect,0.250000X0.450000X-0.350000X0.450000X0.350000X-0.450000X0.350000X-0.450000X-0.350000X0*%
%TD*%
%TA.AperFunction,ComponentPad*%
%ADD13RoundRect,0.250000X0.850000X0.600000X-0.850000X0.600000X-0.850000X-0.600000X0.850000X-0.600000X0*%
%TD*%
%TA.AperFunction,ComponentPad*%
%ADD14O,2.200000X1.700000*%
%TD*%
%TA.AperFunction,SMDPad,CuDef*%
%ADD15R,5.080000X1.500000*%
%TD*%
%TA.AperFunction,SMDPad,CuDef*%
%ADD16RoundRect,0.250000X-0.475000X0.337500X-0.475000X-0.337500X0.475000X-0.337500X0.475000X0.337500X0*%
%TD*%
%TA.AperFunction,SMDPad,CuDef*%
%ADD17RoundRect,0.250000X0.475000X-0.337500X0.475000X0.337500X-0.475000X0.337500X-0.475000X-0.337500X0*%
%TD*%
%TA.AperFunction,SMDPad,CuDef*%
%ADD18RoundRect,0.250000X-0.337500X-0.475000X0.337500X-0.475000X0.337500X0.475000X-0.337500X0.475000X0*%
%TD*%
%TA.AperFunction,ViaPad*%
%ADD19C,0.508000*%
%TD*%
%TA.AperFunction,Conductor*%
%ADD20C,0.203200*%
%TD*%
G04 APERTURE END LIST*
D10*
%TO.P,U1,1,NC*%
%TO.N,unconnected-(U1-Pad1)*%
X158829989Y-85124989D03*
%TO.P,U1,2,-in*%
%TO.N,/inv_in*%
X157559989Y-85124989D03*
%TO.P,U1,3,+in*%
%TO.N,/non_inv_in*%
X156289989Y-85124989D03*
%TO.P,U1,4,V-*%
%TO.N,-5V*%
X155019989Y-85124989D03*
%TO.P,U1,5,NC*%
%TO.N,unconnected-(U1-Pad5)*%
X155019989Y-90074989D03*
%TO.P,U1,6,Out*%
%TO.N,/amp_out*%
X156289989Y-90074989D03*
%TO.P,U1,7,V+*%
%TO.N,+5V*%
X157559989Y-90074989D03*
%TO.P,U1,8,NC*%
%TO.N,unconnected-(U1-Pad8)*%
X158829989Y-90074989D03*
%TD*%
D11*
%TO.P,R5,1*%
%TO.N,/amp_out*%
X155499989Y-92274989D03*
%TO.P,R5,2*%
%TO.N,/coax_out*%
X155499989Y-94274989D03*
%TD*%
%TO.P,R4,1*%
%TO.N,/inv_in*%
X160649989Y-86524989D03*
%TO.P,R4,2*%
%TO.N,/amp_out*%
X160649989Y-88524989D03*
%TD*%
D12*
%TO.P,R3,2*%
%TO.N,GND*%
X155324989Y-80724989D03*
%TO.P,R3,1*%
%TO.N,/non_inv_in*%
X155324989Y-82724989D03*
%TD*%
D11*
%TO.P,R2,1*%
%TO.N,/Cblock_Rin*%
X157999989Y-79224989D03*
%TO.P,R2,2*%
%TO.N,/inv_in*%
X157999989Y-81224989D03*
%TD*%
D12*
%TO.P,R1,2*%
%TO.N,/coax_in*%
X150150000Y-77175000D03*
%TO.P,R1,1*%
%TO.N,GND*%
X150150000Y-79175000D03*
%TD*%
D13*
%TO.P,J3,1,Pin_1*%
%TO.N,+5V*%
X150464989Y-89999989D03*
D14*
%TO.P,J3,2,Pin_2*%
%TO.N,GND*%
X150464989Y-87499989D03*
%TO.P,J3,3,Pin_3*%
%TO.N,-5V*%
X150464989Y-84999989D03*
%TD*%
D15*
%TO.P,J2,1,In*%
%TO.N,/coax_out*%
X144824989Y-98799989D03*
%TO.P,J2,2,Ext*%
%TO.N,GND*%
X144824989Y-94549989D03*
X144824989Y-103049989D03*
%TD*%
%TO.P,J1,1,In*%
%TO.N,/coax_in*%
X144824989Y-75799989D03*
%TO.P,J1,2,Ext*%
%TO.N,GND*%
X144824989Y-71549989D03*
X144824989Y-80049989D03*
%TD*%
D16*
%TO.P,C7,1*%
%TO.N,-5V*%
X153174989Y-89487489D03*
%TO.P,C7,2*%
%TO.N,+5V*%
X153174989Y-91562489D03*
%TD*%
%TO.P,C5,2*%
%TO.N,GND*%
X153149989Y-86712489D03*
%TO.P,C5,1*%
%TO.N,-5V*%
X153149989Y-84637489D03*
%TD*%
D17*
%TO.P,C3,1*%
%TO.N,GND*%
X158074989Y-94312489D03*
%TO.P,C3,2*%
%TO.N,+5V*%
X158074989Y-92237489D03*
%TD*%
D16*
%TO.P,C2,2*%
%TO.N,/amp_out*%
X162649989Y-88562489D03*
%TO.P,C2,1*%
%TO.N,/inv_in*%
X162649989Y-86487489D03*
%TD*%
D18*
%TO.P,C1,2*%
%TO.N,/Cblock_Rin*%
X155075000Y-77400000D03*
%TO.P,C1,1*%
%TO.N,/coax_in*%
X153000000Y-77400000D03*
%TD*%
D19*
%TO.N,-5V*%
X153554989Y-88431589D03*
%TO.N,GND*%
X158074989Y-95399989D03*
%TO.N,+5V*%
X159199989Y-92224989D03*
%TO.N,GND*%
X152024989Y-87499989D03*
X154349989Y-80724989D03*
X147849989Y-103049989D03*
X147904989Y-94539989D03*
%TO.N,+5V*%
X152050712Y-90914266D03*
%TO.N,-5V*%
X151977489Y-84637489D03*
%TO.N,GND*%
X147904279Y-80049989D03*
X147884989Y-71549989D03*
%TD*%
D20*
%TO.N,-5V*%
X153174989Y-89487489D02*
X153554989Y-89487489D01*
X153554989Y-89487489D02*
X153554989Y-88431589D01*
%TO.N,GND*%
X158074989Y-94312489D02*
X158074989Y-95399989D01*
%TO.N,+5V*%
X158074989Y-92237489D02*
X159169812Y-92237489D01*
X159199986Y-92224986D02*
G75*
G02*
X159169812Y-92237489I-30186J30186D01*
G01*
%TO.N,GND*%
X150464989Y-87499989D02*
X152024989Y-87499989D01*
X152601141Y-87261344D02*
G75*
G02*
X152024989Y-87499989I-576141J576144D01*
G01*
X152601137Y-87261340D02*
X153149989Y-86712489D01*
X155324989Y-80724989D02*
X154349989Y-80724989D01*
X144824989Y-103049989D02*
X147849989Y-103049989D01*
X144824989Y-94549989D02*
X147894989Y-94549989D01*
X147894989Y-94549989D02*
X147904989Y-94539989D01*
%TO.N,/coax_out*%
X155323696Y-94451283D02*
G75*
G02*
X144824989Y-98799989I-10498696J10498683D01*
G01*
X155323695Y-94451282D02*
X155499989Y-94274989D01*
%TO.N,+5V*%
X152050712Y-90914266D02*
X150464989Y-89999989D01*
X153174989Y-91562489D02*
X152050712Y-90914266D01*
%TO.N,-5V*%
X151977489Y-84637489D02*
X153149989Y-84637489D01*
%TO.N,GND*%
X144824989Y-71549989D02*
X147884989Y-71549989D01*
X144824989Y-80049989D02*
X147904279Y-80049989D01*
X148024995Y-79999995D02*
G75*
G02*
X147904279Y-80049989I-120695J120695D01*
G01*
X148024989Y-79999989D02*
X148158301Y-79999989D01*
X150150000Y-79175000D02*
G75*
G02*
X148158301Y-79999989I-1991700J1991700D01*
G01*
%TO.N,-5V*%
X153149989Y-84637489D02*
X153843060Y-84637489D01*
X155020005Y-85124973D02*
G75*
G03*
X153843060Y-84637489I-1176905J-1176927D01*
G01*
X151340141Y-84637507D02*
G75*
G03*
X150464990Y-84999990I-41J-1237593D01*
G01*
X151340141Y-84637489D02*
X151977489Y-84637489D01*
%TO.N,/non_inv_in*%
X156289989Y-85124989D02*
X156289989Y-85054705D01*
X155324986Y-82724992D02*
G75*
G02*
X156289989Y-85054705I-2329686J-2329708D01*
G01*
%TO.N,/coax_out*%
X155499989Y-94274989D02*
X155323696Y-94451282D01*
%TO.N,/amp_out*%
X156289989Y-90074989D02*
X156289989Y-90367761D01*
X155500001Y-92275001D02*
G75*
G03*
X156289989Y-90367761I-1907201J1907201D01*
G01*
%TO.N,+5V*%
X157559989Y-90074989D02*
X157559989Y-90994170D01*
X158074975Y-92237503D02*
G75*
G02*
X157559989Y-90994170I1243325J1243303D01*
G01*
%TO.N,/amp_out*%
X160649989Y-88524989D02*
X162559456Y-88524989D01*
X162650006Y-88562472D02*
G75*
G03*
X162559456Y-88524989I-90506J-90528D01*
G01*
%TO.N,/inv_in*%
X160649989Y-86524989D02*
X162559456Y-86524989D01*
X162650002Y-86487502D02*
G75*
G02*
X162559456Y-86524989I-90502J90502D01*
G01*
%TO.N,/amp_out*%
X156289989Y-90074989D02*
X156289989Y-89608750D01*
X157288897Y-88524989D02*
G75*
G03*
X156624990Y-88799990I3J-938911D01*
G01*
X156625003Y-88800003D02*
G75*
G03*
X156289989Y-89608750I808797J-808797D01*
G01*
X157288897Y-88524989D02*
X160649989Y-88524989D01*
%TO.N,/inv_in*%
X157559989Y-85124989D02*
X157559989Y-85277380D01*
X158024978Y-86400000D02*
G75*
G02*
X157559989Y-85277380I1122622J1122600D01*
G01*
X158326765Y-86525009D02*
G75*
G02*
X158024989Y-86399989I35J426809D01*
G01*
X158326765Y-86524989D02*
X160649989Y-86524989D01*
X157560007Y-82287242D02*
G75*
G02*
X157999989Y-81224989I1502193J42D01*
G01*
X157559989Y-82287242D02*
X157559989Y-85124989D01*
%TO.N,/Cblock_Rin*%
X156952810Y-78177825D02*
G75*
G03*
X155075000Y-77400000I-1877810J-1877775D01*
G01*
X156952818Y-78177817D02*
X157999989Y-79224989D01*
%TO.N,/coax_in*%
X150150000Y-77175000D02*
X152456802Y-77175000D01*
X152999999Y-77400001D02*
G75*
G03*
X152456802Y-77175000I-543199J-543199D01*
G01*
X144824989Y-75799989D02*
X146830430Y-75799989D01*
X150149991Y-77175009D02*
G75*
G03*
X146830430Y-75799989I-3319591J-3319591D01*
G01*
%TD*%
M02*
